<?xml version="1.0" encoding="utf-8"?><svg viewBox="0 0 431.4 500" xmlns="http://www.w3.org/2000/svg" xmlns:xlink="http://www.w3.org/1999/xlink"><style>:root>svg{display:none}:root>svg:target{display:block}</style><svg fill="none" viewBox="0 0 14 14" id="data" xmlns="http://www.w3.org/2000/svg"><path d="M11.667 1.75h-.584V.583H9.917V1.75H4.083V.583H2.917V1.75h-.584a1.17 1.17 0 00-1.166 1.167v9.333a1.17 1.17 0 001.166 1.167h9.334a1.17 1.17 0 001.166-1.167V2.917a1.17 1.17 0 00-1.166-1.167zm0 10.5H2.333V4.667h9.334v7.583z" fill="#999"/></svg><svg fill="none" viewBox="0 0 20 20" id="phone" xmlns="http://www.w3.org/2000/svg"><path d="M16.675 12.817a9.536 9.536 0 01-2.942-.467.814.814 0 00-.841.2l-1.309 1.642c-2.358-1.125-4.566-3.25-5.741-5.692l1.625-1.383a.85.85 0 00.2-.85A9.294 9.294 0 017.2 3.325a.832.832 0 00-.825-.825H3.492c-.45 0-.992.2-.992.825C2.5 11.067 8.942 17.5 16.675 17.5c.592 0 .825-.525.825-.983v-2.875a.832.832 0 00-.825-.825z" fill="#FF6E30"/></svg><svg id="test" version="1.1" xml:space="preserve" fill="#11B24C" viewBox="0 0 431.4 500" xmlns="http://www.w3.org/2000/svg"><style>.cst0{fill:#11b24c}</style><g id="cXMLID_918_"><path class="cst0" d="M365.6 285.9H40.3v133.9h276.3l49-133.9zm-222.7 97.8c-4.4 3.4-10.2 5-17.4 5-6.9 0-12.9-1.8-18.1-5.5-5.1-3.7-7.6-8.9-7.5-15.6l.1-.3h10.9c0 4.1 1.4 7.2 4.2 9.2 2.8 2.1 6.3 3.1 10.3 3.1 4 0 7.1-.8 9.4-2.5 2.2-1.7 3.3-4 3.3-6.9 0-2.8-1-5.2-3-7-2-1.8-5.6-3.4-10.7-4.9-7.3-2-13-4.7-16.9-8-4-3.3-6-7.6-6-12.9 0-5.5 2.2-10 6.5-13.6 4.4-3.6 10-5.3 16.8-5.3 7.4 0 13.2 2 17.6 5.9 4.4 3.9 6.5 8.8 6.4 14.6l-.1.3h-10.9c0-3.6-1.2-6.4-3.6-8.6-2.4-2.1-5.6-3.2-9.5-3.2-3.8 0-6.8.9-8.9 2.7-2.1 1.8-3.1 4.1-3.1 7 0 2.6 1.1 4.8 3.4 6.5 2.3 1.7 6 3.3 11.3 4.8 7.1 2 12.6 4.7 16.3 8.2 3.7 3.4 5.6 7.8 5.6 13.2.2 5.9-2 10.4-6.4 13.8zm49.7 4.1h-10.8l-24.3-68h12.1l16.2 49.6 1.2 5h.3l1.2-4.9 16.3-49.7h12.1l-24.3 68zm84.8-9.2c-1.9 2.6-4.9 5-8.9 7.1-4.1 2.1-9.4 3.1-15.9 3.1-8 0-14.6-2.6-19.8-7.8-5.2-5.2-7.8-11.9-7.8-20.1v-14.2c0-8.2 2.5-14.9 7.5-20.1 5-5.2 11.5-7.8 19.3-7.8 7.9 0 14.1 2 18.5 6s6.6 9.2 6.4 15.6l-.1.3h-10.8c0-3.8-1.2-6.9-3.6-9.3s-5.8-3.5-10.3-3.5c-4.7 0-8.5 1.8-11.4 5.3-2.9 3.5-4.3 8-4.3 13.4v14.3c0 5.5 1.5 10 4.5 13.5s6.9 5.3 11.8 5.3c3.6 0 6.5-.4 8.6-1.2 2.1-.8 3.7-1.8 4.8-3v-14.1h-14.3v-8.5h25.6v25.7z" id="cXMLID_922_"/><path class="cst0" d="M352.9 6H107.4c-7.3 0-13.3 6-13.3 13.3v256.8h26.6V32.6h232.2v92.2h92.2v354.6H120.7v-49.8H94.1v63.1c0 7.3 6 13.3 13.3 13.3h351c7.3 0 13.3-6 13.3-13.3V124.8L352.9 6z" id="cXMLID_921_"/><path class="cst0" id="cXMLID_920_" d="M156.2 171.4h253.4V191H156.2z"/><path class="cst0" id="cXMLID_919_" d="M156.2 209.5h213.3v19.6H156.2z"/></g></svg></svg>